<svg width="142" height="46" viewBox="0 0 142 46" fill="none" xmlns="http://www.w3.org/2000/svg">
<path d="M0.984 13.2H5.016C6.328 13.2 7.312 13.552 7.968 14.256C8.624 14.96 8.952 15.992 8.952 17.352V25.848C8.952 27.208 8.624 28.24 7.968 28.944C7.312 29.648 6.328 30 5.016 30H0.984V13.2ZM4.968 27.6C5.4 27.6 5.728 27.472 5.952 27.216C6.192 26.96 6.312 26.544 6.312 25.968V17.232C6.312 16.656 6.192 16.24 5.952 15.984C5.728 15.728 5.4 15.6 4.968 15.6H3.624V27.6H4.968ZM10.734 13.2H13.374V30H10.734V13.2ZM18.7832 30.24C17.5032 30.24 16.5352 29.88 15.8792 29.16C15.2232 28.424 14.8952 27.376 14.8952 26.016V25.056H17.3912V26.208C17.3912 27.296 17.8472 27.84 18.7592 27.84C19.2072 27.84 19.5432 27.712 19.7672 27.456C20.0072 27.184 20.1272 26.752 20.1272 26.16C20.1272 25.456 19.9672 24.84 19.6472 24.312C19.3272 23.768 18.7352 23.12 17.8712 22.368C16.7832 21.408 16.0232 20.544 15.5912 19.776C15.1592 18.992 14.9432 18.112 14.9432 17.136C14.9432 15.808 15.2792 14.784 15.9512 14.064C16.6232 13.328 17.5992 12.96 18.8792 12.96C20.1432 12.96 21.0952 13.328 21.7352 14.064C22.3912 14.784 22.7192 15.824 22.7192 17.184V17.88H20.2232V17.016C20.2232 16.44 20.1112 16.024 19.8872 15.768C19.6632 15.496 19.3352 15.36 18.9032 15.36C18.0232 15.36 17.5832 15.896 17.5832 16.968C17.5832 17.576 17.7432 18.144 18.0632 18.672C18.3992 19.2 18.9992 19.84 19.8632 20.592C20.9672 21.552 21.7272 22.424 22.1432 23.208C22.5592 23.992 22.7672 24.912 22.7672 25.968C22.7672 27.344 22.4232 28.4 21.7352 29.136C21.0632 29.872 20.0792 30.24 18.7832 30.24ZM24.2809 13.2H26.9209V30H24.2809V13.2ZM28.8981 13.2H32.2101L34.7781 23.256H34.8261V13.2H37.1781V30H34.4661L31.2981 17.736H31.2501V30H28.8981V13.2Z" fill="white"/>
<path d="M87.984 13.2H94.968V15.6H90.624V20.28H94.032V22.68H90.624V30H87.984V13.2ZM96.234 13.2H103.434V15.6H98.874V20.04H102.498V22.44H98.874V27.6H103.434V30H96.234V13.2ZM108.673 30.24C107.409 30.24 106.441 29.88 105.769 29.16C105.113 28.44 104.785 27.424 104.785 26.112V17.088C104.785 15.776 105.113 14.76 105.769 14.04C106.441 13.32 107.409 12.96 108.673 12.96C109.937 12.96 110.897 13.32 111.553 14.04C112.225 14.76 112.561 15.776 112.561 17.088V18.864H110.065V16.92C110.065 15.88 109.625 15.36 108.745 15.36C107.865 15.36 107.425 15.88 107.425 16.92V26.304C107.425 27.328 107.865 27.84 108.745 27.84C109.625 27.84 110.065 27.328 110.065 26.304V23.736H112.561V26.112C112.561 27.424 112.225 28.44 111.553 29.16C110.897 29.88 109.937 30.24 108.673 30.24ZM116.204 15.6H113.444V13.2H121.604V15.6H118.844V30H116.204V15.6ZM126.605 30.24C125.309 30.24 124.317 29.872 123.629 29.136C122.941 28.4 122.597 27.36 122.597 26.016V17.184C122.597 15.84 122.941 14.8 123.629 14.064C124.317 13.328 125.309 12.96 126.605 12.96C127.901 12.96 128.893 13.328 129.581 14.064C130.269 14.8 130.613 15.84 130.613 17.184V26.016C130.613 27.36 130.269 28.4 129.581 29.136C128.893 29.872 127.901 30.24 126.605 30.24ZM126.605 27.84C127.517 27.84 127.973 27.288 127.973 26.184V17.016C127.973 15.912 127.517 15.36 126.605 15.36C125.693 15.36 125.237 15.912 125.237 17.016V26.184C125.237 27.288 125.693 27.84 126.605 27.84ZM132.398 13.2H136.31C137.67 13.2 138.662 13.52 139.286 14.16C139.91 14.784 140.222 15.752 140.222 17.064V18.096C140.222 19.84 139.646 20.944 138.494 21.408V21.456C139.134 21.648 139.582 22.04 139.838 22.632C140.11 23.224 140.246 24.016 140.246 25.008V27.96C140.246 28.44 140.262 28.832 140.294 29.136C140.326 29.424 140.406 29.712 140.534 30H137.846C137.75 29.728 137.686 29.472 137.654 29.232C137.622 28.992 137.606 28.56 137.606 27.936V24.864C137.606 24.096 137.478 23.56 137.222 23.256C136.982 22.952 136.558 22.8 135.95 22.8H135.038V30H132.398V13.2ZM135.998 20.4C136.526 20.4 136.918 20.264 137.174 19.992C137.446 19.72 137.582 19.264 137.582 18.624V17.328C137.582 16.72 137.47 16.28 137.246 16.008C137.038 15.736 136.702 15.6 136.238 15.6H135.038V20.4H135.998Z" fill="white"/>
<path d="M76.3114 0.650172L76.3115 0.650208L76.306 0.654178C76.2014 0.730525 76.1683 0.821209 76.1683 0.893785C76.1683 0.96636 76.2014 1.05705 76.306 1.13339L76.3061 1.13335L76.3114 1.1374C76.3762 1.18597 76.4518 1.22971 76.5186 1.25954C76.5487 1.27302 76.5723 1.2815 76.588 1.28621C76.6384 1.27918 76.7287 1.24345 76.8218 1.14957C76.9271 1.04331 76.9595 0.939418 76.9595 0.893785C76.9595 0.848152 76.9271 0.744255 76.8218 0.638C76.7287 0.544122 76.6384 0.508393 76.588 0.501357C76.5723 0.506075 76.5487 0.514554 76.5186 0.528027C76.4518 0.557861 76.3762 0.601604 76.3114 0.650172ZM76.6007 1.28963C76.6017 1.28986 76.6022 1.28995 76.6022 1.28993C76.6022 1.28992 76.6017 1.2898 76.6007 1.28963Z" fill="white" stroke="white"/>
<mask id="path-4-inside-1_7_145" fill="white">
<path d="M50.261 2.18083C49.0541 2.50259 48.0251 3.2772 47.4916 4.26632C47.0342 5.11244 46.9707 5.8513 46.9707 10.1295V14.3005H44.2013C41.6733 14.3005 41.4065 14.3244 41.216 14.515C41.0254 14.7176 41 15.4088 41 22.0109C41 28.7798 41.0127 29.2922 41.2287 29.4591C41.343 29.5663 42.4482 30.1145 43.6678 30.6865C44.8873 31.2585 45.9036 31.7352 45.9163 31.7472C45.929 31.7591 45.3447 44.1171 45.3192 44.2959C45.3192 44.3197 44.6714 44.3316 43.871 44.3316C42.6515 44.3316 42.3847 44.3674 42.1306 44.5461C41.7368 44.856 41.7368 45.4756 42.1306 45.7855C42.4101 45.9881 43.1596 46 61.6689 46C81.0928 46 81.2706 46 81.5501 45.5948C81.728 45.3446 81.6518 44.8083 81.3977 44.5699C81.1436 44.3316 80.9785 44.3316 69.7103 44.3316H58.277V33.3679V22.4041H60.1317C62.3295 22.4041 62.8376 22.285 63.5617 21.6295C64.1842 21.0813 64.4383 20.3663 64.3112 19.5798L64.235 19.0674H66.4582H68.694V19.6394C68.694 20.6523 69.6214 21.129 70.2057 20.4259C70.4598 20.128 70.4725 19.9611 70.4725 17.101C70.4725 14.2409 70.4598 14.0741 70.2057 13.7762C69.6341 13.0969 68.694 13.5259 68.694 14.4793V15.0155H63.0663H57.4386L56.9685 14.5627C56.6636 14.2648 56.4985 14.0026 56.4985 13.7881V13.4663H57.5148C58.4421 13.4663 58.5692 13.4306 58.8487 13.1684C59.1535 12.8824 59.1663 12.8347 59.1663 10.9876C59.1663 8.60415 59.1917 8.66373 57.6799 8.58031L56.562 8.52073L56.4985 6.73316C56.4223 4.6715 56.2444 4.15907 55.2535 3.24145C54.4024 2.44301 53.5258 2.10933 52.0649 2.06166C51.3154 2.03782 50.6167 2.08549 50.261 2.18083ZM53.3099 3.92073C53.7926 4.15907 54.5929 4.90984 54.5929 5.12435C54.5929 5.19585 53.5131 5.24352 51.7981 5.24352C50.261 5.24352 49.0033 5.20777 49.0033 5.14819C49.0033 4.82642 49.6512 4.21865 50.3753 3.86114C50.9089 3.59896 52.7001 3.63472 53.3099 3.92073ZM49.6639 7.76995C49.7655 9.2 50.4642 10.201 51.7346 10.7373C52.1157 10.9041 52.5603 10.9637 53.5512 10.9637H54.847V12.215V13.4663H51.7981H48.7492V10.1891V6.91192H49.1812H49.6004L49.6639 7.76995ZM54.8216 8.12746L54.7835 9.35492H53.7672C52.573 9.35492 52.0141 9.16425 51.6838 8.65181C51.4297 8.25855 51.2265 7.23368 51.3535 7.03109C51.4043 6.95959 52.1411 6.91192 53.1447 6.91192H54.8597L54.8216 8.12746ZM57.3877 10.9637V11.7979H56.9431H56.4985V11.0472C56.4985 10.6301 56.5366 10.2487 56.5874 10.213C56.6255 10.1653 56.8288 10.1295 57.032 10.1295H57.3877V10.9637ZM49.6639 15.6591C49.6131 16.2311 49.702 16.5171 50.5786 18.6026C51.7092 21.2601 51.976 21.701 52.7255 22.0705C53.1701 22.2969 53.5131 22.3446 54.8851 22.3803L56.4985 22.428V24.442V26.456H52.1792H47.86V21.2244C47.86 18.1855 47.9108 15.8617 47.987 15.6829C48.1395 15.3135 48.673 15.0275 49.2701 15.0155H49.7274L49.6639 15.6591ZM52.8271 15.3611C52.9415 15.4684 53.3353 16.2549 53.691 17.1249C54.0594 17.9829 54.4532 18.7694 54.5802 18.8767C54.7581 19.0316 55.3679 19.0674 58.4294 19.0912C61.7959 19.1269 62.0754 19.1389 62.3295 19.3534C62.6725 19.6394 62.6725 20.1876 62.3422 20.4974C62.1008 20.7238 61.9229 20.7358 57.8578 20.7358C53.8942 20.7358 53.602 20.7238 53.3988 20.5093C53.1066 20.2114 51.417 16.2311 51.417 15.8497C51.4297 15.1109 52.2682 14.813 52.8271 15.3611ZM55.4314 15.5041C55.9649 15.814 56.4985 16.6363 56.4985 17.1487C56.4985 17.5062 56.4731 17.5301 56.1047 17.4943C55.7363 17.4585 55.6854 17.387 55.2789 16.4575C54.6946 15.099 54.7073 15.0751 55.4314 15.5041ZM46.1323 22.8451C46.1323 26.6585 46.0942 29.8166 46.0561 29.8523C46.018 29.9 45.2303 29.5782 44.3157 29.1492L42.6515 28.3627V22.1062V15.8378L44.4046 15.8736L46.145 15.9093L46.1323 22.8451ZM68.694 17.101V17.5181H63.4855H58.277V17.101V16.6839H63.4855H68.694V17.101ZM56.4985 36.228V44.3316H56.0793H55.6727L55.1138 40.4824C53.945 32.4264 53.8815 32.0212 53.6275 31.8544C53.3353 31.6637 52.8017 31.6518 52.5222 31.8425C52.3698 31.9497 51.7219 33.9637 50.4896 38.1347L48.6857 44.272L47.8854 44.3078C47.1359 44.3435 47.0978 44.3316 47.0978 44.0694C47.0978 43.5093 47.7329 30.0549 47.8092 29.1016L47.8854 28.1244H52.1919H56.4985V36.228ZM53.3099 40.2202C53.602 42.1865 53.8688 43.9145 53.8942 44.0575C53.9577 44.3316 53.9577 44.3316 52.2427 44.3316C51.3027 44.3316 50.5278 44.2959 50.5278 44.2363C50.5278 44.1171 52.7382 36.5974 52.7763 36.6212C52.789 36.6332 53.0304 38.2539 53.3099 40.2202Z"/>
</mask>
<path d="M50.261 2.18083C49.0541 2.50259 48.0251 3.2772 47.4916 4.26632C47.0342 5.11244 46.9707 5.8513 46.9707 10.1295V14.3005H44.2013C41.6733 14.3005 41.4065 14.3244 41.216 14.515C41.0254 14.7176 41 15.4088 41 22.0109C41 28.7798 41.0127 29.2922 41.2287 29.4591C41.343 29.5663 42.4482 30.1145 43.6678 30.6865C44.8873 31.2585 45.9036 31.7352 45.9163 31.7472C45.929 31.7591 45.3447 44.1171 45.3192 44.2959C45.3192 44.3197 44.6714 44.3316 43.871 44.3316C42.6515 44.3316 42.3847 44.3674 42.1306 44.5461C41.7368 44.856 41.7368 45.4756 42.1306 45.7855C42.4101 45.9881 43.1596 46 61.6689 46C81.0928 46 81.2706 46 81.5501 45.5948C81.728 45.3446 81.6518 44.8083 81.3977 44.5699C81.1436 44.3316 80.9785 44.3316 69.7103 44.3316H58.277V33.3679V22.4041H60.1317C62.3295 22.4041 62.8376 22.285 63.5617 21.6295C64.1842 21.0813 64.4383 20.3663 64.3112 19.5798L64.235 19.0674H66.4582H68.694V19.6394C68.694 20.6523 69.6214 21.129 70.2057 20.4259C70.4598 20.128 70.4725 19.9611 70.4725 17.101C70.4725 14.2409 70.4598 14.0741 70.2057 13.7762C69.6341 13.0969 68.694 13.5259 68.694 14.4793V15.0155H63.0663H57.4386L56.9685 14.5627C56.6636 14.2648 56.4985 14.0026 56.4985 13.7881V13.4663H57.5148C58.4421 13.4663 58.5692 13.4306 58.8487 13.1684C59.1535 12.8824 59.1663 12.8347 59.1663 10.9876C59.1663 8.60415 59.1917 8.66373 57.6799 8.58031L56.562 8.52073L56.4985 6.73316C56.4223 4.6715 56.2444 4.15907 55.2535 3.24145C54.4024 2.44301 53.5258 2.10933 52.0649 2.06166C51.3154 2.03782 50.6167 2.08549 50.261 2.18083ZM53.3099 3.92073C53.7926 4.15907 54.5929 4.90984 54.5929 5.12435C54.5929 5.19585 53.5131 5.24352 51.7981 5.24352C50.261 5.24352 49.0033 5.20777 49.0033 5.14819C49.0033 4.82642 49.6512 4.21865 50.3753 3.86114C50.9089 3.59896 52.7001 3.63472 53.3099 3.92073ZM49.6639 7.76995C49.7655 9.2 50.4642 10.201 51.7346 10.7373C52.1157 10.9041 52.5603 10.9637 53.5512 10.9637H54.847V12.215V13.4663H51.7981H48.7492V10.1891V6.91192H49.1812H49.6004L49.6639 7.76995ZM54.8216 8.12746L54.7835 9.35492H53.7672C52.573 9.35492 52.0141 9.16425 51.6838 8.65181C51.4297 8.25855 51.2265 7.23368 51.3535 7.03109C51.4043 6.95959 52.1411 6.91192 53.1447 6.91192H54.8597L54.8216 8.12746ZM57.3877 10.9637V11.7979H56.9431H56.4985V11.0472C56.4985 10.6301 56.5366 10.2487 56.5874 10.213C56.6255 10.1653 56.8288 10.1295 57.032 10.1295H57.3877V10.9637ZM49.6639 15.6591C49.6131 16.2311 49.702 16.5171 50.5786 18.6026C51.7092 21.2601 51.976 21.701 52.7255 22.0705C53.1701 22.2969 53.5131 22.3446 54.8851 22.3803L56.4985 22.428V24.442V26.456H52.1792H47.86V21.2244C47.86 18.1855 47.9108 15.8617 47.987 15.6829C48.1395 15.3135 48.673 15.0275 49.2701 15.0155H49.7274L49.6639 15.6591ZM52.8271 15.3611C52.9415 15.4684 53.3353 16.2549 53.691 17.1249C54.0594 17.9829 54.4532 18.7694 54.5802 18.8767C54.7581 19.0316 55.3679 19.0674 58.4294 19.0912C61.7959 19.1269 62.0754 19.1389 62.3295 19.3534C62.6725 19.6394 62.6725 20.1876 62.3422 20.4974C62.1008 20.7238 61.9229 20.7358 57.8578 20.7358C53.8942 20.7358 53.602 20.7238 53.3988 20.5093C53.1066 20.2114 51.417 16.2311 51.417 15.8497C51.4297 15.1109 52.2682 14.813 52.8271 15.3611ZM55.4314 15.5041C55.9649 15.814 56.4985 16.6363 56.4985 17.1487C56.4985 17.5062 56.4731 17.5301 56.1047 17.4943C55.7363 17.4585 55.6854 17.387 55.2789 16.4575C54.6946 15.099 54.7073 15.0751 55.4314 15.5041ZM46.1323 22.8451C46.1323 26.6585 46.0942 29.8166 46.0561 29.8523C46.018 29.9 45.2303 29.5782 44.3157 29.1492L42.6515 28.3627V22.1062V15.8378L44.4046 15.8736L46.145 15.9093L46.1323 22.8451ZM68.694 17.101V17.5181H63.4855H58.277V17.101V16.6839H63.4855H68.694V17.101ZM56.4985 36.228V44.3316H56.0793H55.6727L55.1138 40.4824C53.945 32.4264 53.8815 32.0212 53.6275 31.8544C53.3353 31.6637 52.8017 31.6518 52.5222 31.8425C52.3698 31.9497 51.7219 33.9637 50.4896 38.1347L48.6857 44.272L47.8854 44.3078C47.1359 44.3435 47.0978 44.3316 47.0978 44.0694C47.0978 43.5093 47.7329 30.0549 47.8092 29.1016L47.8854 28.1244H52.1919H56.4985V36.228ZM53.3099 40.2202C53.602 42.1865 53.8688 43.9145 53.8942 44.0575C53.9577 44.3316 53.9577 44.3316 52.2427 44.3316C51.3027 44.3316 50.5278 44.2959 50.5278 44.2363C50.5278 44.1171 52.7382 36.5974 52.7763 36.6212C52.789 36.6332 53.0304 38.2539 53.3099 40.2202Z" fill="white" stroke="white" stroke-width="2" mask="url(#path-4-inside-1_7_145)"/>
<path d="M81.7282 6.23369C81.7014 6.31462 81.7221 6.40142 81.8211 6.47989C81.9287 6.56525 82.0885 6.59742 82.2438 6.52299C82.3939 6.44726 82.7265 6.2275 83.074 5.97443C83.4211 5.72169 83.7044 5.49276 83.7932 5.39988C83.8059 5.3834 83.819 5.3529 83.8141 5.30381C83.8088 5.25101 83.7822 5.18669 83.7234 5.1315C83.6603 5.0723 83.617 5.05157 83.589 5.04301C83.5629 5.03504 83.5209 5.02859 83.4452 5.04391C83.2687 5.07958 82.9898 5.21442 82.5256 5.54397C82.3054 5.70024 82.0968 5.8688 81.9397 6.0135C81.8608 6.08617 81.8006 6.14757 81.7602 6.19428C81.7436 6.21344 81.7335 6.22642 81.7282 6.23369Z" fill="white" stroke="white"/>
<path d="M65.8944 5.53617L65.8945 5.53621L65.889 5.54018C65.7844 5.61653 65.7513 5.70721 65.7513 5.77979C65.7513 5.85236 65.7844 5.94305 65.889 6.01939L65.889 6.01936L65.8944 6.0234C65.9591 6.07197 66.0348 6.11571 66.1015 6.14554C66.1317 6.15902 66.1553 6.1675 66.171 6.17221C66.2213 6.16518 66.3117 6.12945 66.4048 6.03557C66.5101 5.92932 66.5425 5.82542 66.5425 5.77979C66.5425 5.73415 66.5101 5.63026 66.4048 5.524C66.3117 5.43012 66.2213 5.39439 66.171 5.38736C66.1553 5.39208 66.1317 5.40056 66.1015 5.41403C66.0348 5.44386 65.9591 5.48761 65.8944 5.53617ZM66.1837 6.17563C66.1847 6.17586 66.1852 6.17595 66.1852 6.17594C66.1852 6.17592 66.1847 6.17581 66.1837 6.17563Z" fill="white" stroke="white"/>
<path d="M76.2407 10.123L76.2406 10.123C76.4348 9.95156 77.0481 9.49018 77.6786 9.03265C78.3132 8.57211 78.8941 8.16745 79.035 8.08858C79.2535 7.96975 79.4488 8.02953 79.5667 8.23339C79.5826 8.26131 79.5903 8.2792 79.5939 8.28921C79.5871 8.30525 79.5676 8.34261 79.5151 8.40594C79.3215 8.63979 78.8916 8.98563 78.0315 9.60439L76.2407 10.123ZM76.2407 10.123L76.2347 10.1281M76.2407 10.123L76.2347 10.1281M76.2347 10.1281C76.0964 10.2464 76.0617 10.3495 76.0571 10.4055M76.2347 10.1281L76.0571 10.4055M76.0571 10.4055C76.0532 10.4532 76.0657 10.5198 76.1502 10.5991M76.0571 10.4055L76.1502 10.5991M76.1502 10.5991C76.1913 10.6377 76.2187 10.6582 76.2366 10.6693M76.1502 10.5991L76.2366 10.6693M76.2366 10.6693C76.245 10.6745 76.2503 10.6771 76.2531 10.6782M76.2366 10.6693L76.2531 10.6782M76.2531 10.6782C76.2556 10.6793 76.2566 10.6795 76.2567 10.6796M76.2531 10.6782L76.2567 10.6796M76.2567 10.6796L76.2567 10.6796M76.2567 10.6796L76.2567 10.6796M76.2567 10.6796C76.2567 10.6796 76.2578 10.6798 76.2607 10.68M76.2567 10.6796L76.2607 10.68M76.2607 10.68C76.2637 10.6801 76.2701 10.6801 76.2808 10.6789M76.2607 10.68L76.2808 10.6789M76.2808 10.6789C76.3029 10.6762 76.3419 10.668 76.4035 10.6448M76.2808 10.6789L76.4035 10.6448M76.4035 10.6448C76.6839 10.5391 77.1429 10.2433 78.0314 9.60448L76.4035 10.6448ZM79.5968 8.29938C79.5969 8.29942 79.5968 8.29861 79.5963 8.29686L79.5968 8.29938Z" fill="white" stroke="white"/>
<path d="M71.8858 13.3732L71.8859 13.3732L71.8847 13.3858C71.8713 13.5177 71.9084 13.5806 71.9336 13.6081C71.9591 13.6359 72.0202 13.6795 72.1534 13.6813C72.1573 13.6804 72.1803 13.6763 72.227 13.6601C72.29 13.6382 72.3719 13.6029 72.4698 13.5535C72.6651 13.4548 72.8954 13.3148 73.1202 13.1585C73.3452 13.0021 73.5525 12.8381 73.7052 12.6952C73.7819 12.6234 73.8373 12.5639 73.873 12.519C73.8834 12.5058 73.8906 12.4959 73.8953 12.489C73.9077 12.418 73.8889 12.3653 73.8557 12.3236C73.8144 12.2715 73.7292 12.2133 73.5902 12.2005L73.5891 12.2004C73.4699 12.1892 73.409 12.1967 73.3059 12.2427C73.1672 12.3045 72.9694 12.4311 72.5978 12.7015C72.228 12.9754 72.0495 13.121 71.9547 13.2267C71.8929 13.2956 71.8901 13.3169 71.8858 13.3732Z" fill="white" stroke="white"/>
<path d="M83.2203 13.24L83.2203 13.24L83.2234 13.2427C83.2657 13.2792 83.3201 13.3178 83.5139 13.3108C83.7385 13.3027 84.0786 13.2346 84.6447 13.0794L84.6447 13.0794L84.6504 13.0779C85.0377 12.9767 85.2368 12.9077 85.3523 12.8479C85.4337 12.8058 85.4574 12.778 85.484 12.7331C85.5379 12.6299 85.5243 12.5326 85.47 12.4536C85.4126 12.3701 85.3024 12.3007 85.1469 12.3091L85.1334 12.3099H85.1298C85.1299 12.3099 85.1299 12.3099 85.1299 12.3099C85.1299 12.3103 85.1071 12.3126 85.0499 12.3237C84.9844 12.3363 84.8979 12.3556 84.795 12.3806C84.5899 12.4305 84.3345 12.4997 84.081 12.5751C83.8408 12.6465 83.6073 12.7344 83.4278 12.8146C83.3376 12.8548 83.2676 12.8903 83.2202 12.9177C83.215 12.9207 83.2103 12.9234 83.2062 12.9259C83.1834 12.9706 83.1688 13.0321 83.1733 13.1012C83.1795 13.1939 83.2144 13.2351 83.2203 13.24Z" fill="white" stroke="white"/>
<path d="M78.967 13.9476L78.967 13.9477L78.9593 13.9498C78.5172 14.0666 78.0983 14.1918 77.7802 14.2971C77.6205 14.3499 77.4907 14.3962 77.3978 14.4327C77.3817 14.4391 77.3673 14.4449 77.3546 14.4501C77.3445 14.4857 77.3353 14.5336 77.3306 14.5896C77.3247 14.6595 77.3274 14.7247 77.3352 14.7734C77.3383 14.7924 77.3414 14.8046 77.3434 14.8113C77.3637 14.8393 77.3776 14.8547 77.3866 14.8634C77.3949 14.8714 77.3985 14.8732 77.3993 14.8736C77.3993 14.8736 77.3993 14.8736 77.3994 14.8736L77.3994 14.8736C77.4004 14.8741 77.4082 14.8781 77.4294 14.8819C77.4523 14.886 77.4901 14.8897 77.5496 14.8882C77.8177 14.8811 78.2793 14.7811 79.1866 14.5441C80.1249 14.2934 80.5695 14.1518 80.7907 14.0232C80.8378 13.9958 80.8619 13.9759 80.8733 13.9649C80.8788 13.9595 80.8814 13.9562 80.8824 13.9549L80.8836 13.9531C80.8837 13.9528 80.8845 13.9514 80.8856 13.9477C80.8868 13.9439 80.8887 13.9372 80.8905 13.9265C80.894 13.9065 80.8969 13.877 80.8975 13.832C80.8948 13.8249 80.8891 13.8115 80.878 13.7918C80.8511 13.7442 80.8074 13.6862 80.7517 13.6305C80.6957 13.5744 80.6408 13.5338 80.5996 13.5111C80.5994 13.511 80.5992 13.5109 80.5991 13.5108C80.5795 13.5156 80.5549 13.5216 80.5247 13.5291C80.4289 13.5531 80.2976 13.5868 80.14 13.6282C79.8251 13.7109 79.4087 13.8234 78.967 13.9476ZM77.284 14.4819C77.2841 14.4819 77.2855 14.4812 77.2881 14.4797C77.2852 14.4812 77.2839 14.482 77.284 14.4819ZM80.5681 13.4966C80.5681 13.4966 80.5689 13.4969 80.5704 13.4973C80.5689 13.4967 80.5681 13.4965 80.5681 13.4966Z" fill="white" stroke="white"/>
<path d="M72.713 15.7713L72.7131 15.7714L72.7089 15.7796C72.6853 15.8257 72.6702 15.8575 72.6605 15.8801C72.6681 15.8947 72.6787 15.9141 72.6937 15.94C72.7507 16.0335 72.7911 16.0715 72.816 16.089C72.8356 16.1028 72.8673 16.1197 72.941 16.1264C73.1262 16.1432 73.4503 16.0889 74.0874 15.8957C74.5878 15.7433 74.8218 15.6588 74.9465 15.5909C74.973 15.5764 74.9884 15.5659 74.9967 15.5595C75.0008 15.5564 75.0033 15.5543 75.0045 15.5531L75.0058 15.5518L75.0062 15.5514L75.0062 15.5514L75.0065 15.551C75.0068 15.5506 75.0076 15.5494 75.009 15.5469C75.0116 15.5423 75.0161 15.5337 75.0226 15.518C75.0455 15.451 75.0425 15.4285 75.042 15.4243C75.0419 15.4242 75.0419 15.4241 75.0419 15.424C75.0409 15.4155 75.0353 15.3815 74.9829 15.2923L74.9829 15.2923L74.9785 15.2846C74.9782 15.2841 74.978 15.2836 74.9776 15.2829C74.9695 15.2676 74.9366 15.2058 74.7059 15.1947C74.4494 15.1824 74.0539 15.2435 73.4714 15.412C73.1087 15.5195 72.9304 15.5887 72.8296 15.6474C72.7616 15.6869 72.7422 15.7116 72.713 15.7713Z" fill="white" stroke="white"/>
<path d="M75.0014 18.6401C74.9064 18.5473 74.6727 18.422 74.1506 18.2742C73.495 18.0977 73.1727 18.0343 72.9833 18.0374C72.9061 18.0387 72.8802 18.0516 72.872 18.0559C72.86 18.0622 72.8316 18.0801 72.7756 18.1472C72.7202 18.2143 72.6837 18.26 72.6585 18.2939C72.6703 18.32 72.687 18.355 72.711 18.4029L72.7111 18.4029L72.7149 18.4109C72.7404 18.4643 72.756 18.4827 72.7668 18.4935C72.7787 18.5054 72.8079 18.5305 72.8858 18.567C73.0612 18.6493 73.3687 18.7398 73.982 18.8912C74.5006 19.0142 74.775 19.0225 74.9126 18.9902C74.965 18.9779 74.9772 18.9642 74.9782 18.963C74.9782 18.963 74.9783 18.963 74.9783 18.963C74.9812 18.96 75.0009 18.939 75.02 18.8671L75.02 18.8671L75.0213 18.8623C75.0489 18.763 75.0443 18.7157 75.0409 18.6992C75.039 18.6904 75.0353 18.6732 75.0014 18.6401Z" fill="white" stroke="white"/>
<path d="M77.311 19.6785C77.3115 19.6788 77.3121 19.6791 77.3127 19.6795C77.3044 19.6736 77.3025 19.6733 77.311 19.6785ZM77.3553 19.7016C77.3618 19.7047 77.3691 19.7082 77.3772 19.7119C77.4533 19.747 77.5654 19.7916 77.7098 19.8434C77.9963 19.9461 78.3763 20.0653 78.7749 20.1789C79.1729 20.2924 79.5819 20.3982 79.9251 20.4752C80.2884 20.5567 80.5252 20.5933 80.6101 20.5933C80.6406 20.5933 80.6951 20.5845 80.7536 20.5626C80.7808 20.5524 80.8022 20.5417 80.8166 20.5332C80.8212 20.5304 80.8244 20.5283 80.8263 20.5269C80.8357 20.5164 80.852 20.4929 80.8665 20.4511C80.882 20.4063 80.8913 20.3521 80.8913 20.2963C80.8913 20.2399 80.8819 20.1942 80.8707 20.1642C80.87 20.1624 80.8693 20.1607 80.8687 20.1591C80.851 20.1518 80.829 20.143 80.8023 20.1329C80.7081 20.097 80.5771 20.0518 80.4173 19.9998C80.099 19.8962 79.6854 19.7723 79.2636 19.6527C78.842 19.5331 78.417 19.4194 78.0759 19.3359C77.905 19.2941 77.7589 19.2608 77.6466 19.2383C77.6033 19.2296 77.5697 19.2236 77.5446 19.2193C77.5031 19.2445 77.457 19.2786 77.4205 19.3128C77.3828 19.3482 77.3407 19.4248 77.3324 19.5319C77.3267 19.6059 77.3394 19.6635 77.3553 19.7016ZM80.9127 20.1786C80.9156 20.1803 80.9173 20.1811 80.9174 20.1811C80.9175 20.1811 80.916 20.1803 80.9127 20.1786Z" fill="white" stroke="white"/>
<path d="M72.3249 20.4944L72.315 20.4896L72.3052 20.4843C72.2401 20.449 72.2006 20.4305 72.1759 20.4206C72.1493 20.4313 72.1092 20.4503 72.0408 20.4862C71.9217 20.5502 71.8891 20.5823 71.8828 20.5896C71.8798 20.5962 71.8618 20.6446 71.8618 20.8192C71.8618 20.862 71.8645 20.8799 71.8656 20.8851C71.8683 20.8898 71.8758 20.9013 71.8937 20.9213C71.979 21.017 72.1581 21.1581 72.5788 21.4603C73.0868 21.8176 73.3758 21.964 73.5555 22.004C73.6303 22.0207 73.6661 22.0138 73.6849 22.008C73.707 22.0013 73.7479 21.9828 73.8145 21.9203C73.8862 21.8531 73.9032 21.7927 73.9046 21.7537C73.9059 21.7156 73.8936 21.6592 73.8339 21.5945C73.7171 21.4766 73.4292 21.244 73.1026 21.0054C72.7705 20.7628 72.4638 20.5618 72.3249 20.4944ZM71.866 20.8868C71.866 20.8868 71.866 20.8865 71.8658 20.8861L71.866 20.8868ZM71.8652 20.8844C71.8648 20.8833 71.8644 20.8826 71.8644 20.8826L71.8652 20.8844Z" fill="white" stroke="white"/>
<path d="M83.2985 20.9092L83.2985 20.9093L83.2922 20.9139C83.1376 21.0261 83.1437 21.1947 83.2255 21.2869C83.2346 21.2921 83.2537 21.3026 83.2864 21.318C83.3513 21.3487 83.4415 21.3858 83.5531 21.4267C83.7755 21.5082 84.0581 21.5959 84.3432 21.6698C84.7839 21.7837 85.034 21.8362 85.1927 21.8513C85.2673 21.8584 85.3036 21.8552 85.3184 21.8528C85.3281 21.8513 85.3303 21.8502 85.3356 21.8472L85.3481 21.8403L85.361 21.8341C85.4518 21.7906 85.5177 21.691 85.5221 21.5607C85.5265 21.4292 85.4684 21.3568 85.4117 21.3295L85.4116 21.3296L85.4057 21.3266C85.4078 21.3277 85.4089 21.3282 85.4089 21.3283C85.4087 21.3287 85.3862 21.3195 85.3253 21.2993C85.261 21.2779 85.1754 21.2511 85.0736 21.2205C84.8707 21.1594 84.6138 21.086 84.3567 21.0152C84.0995 20.9444 83.8452 20.877 83.6473 20.8276C83.5801 20.8108 83.5208 20.7965 83.471 20.785C83.4214 20.819 83.3622 20.8614 83.2985 20.9092ZM83.3328 20.7562C83.3329 20.7562 83.3343 20.7564 83.337 20.7567C83.334 20.7563 83.3327 20.7561 83.3328 20.7562Z" fill="white" stroke="white"/>
<path d="M76.1212 23.5996L76.1101 23.6074L76.0986 23.6146C76.0886 23.6208 76.0808 23.6261 76.0748 23.6304C76.0748 23.6305 76.0748 23.6307 76.0748 23.6308C76.0727 23.6577 76.0726 23.7002 76.0776 23.7679C76.0848 23.842 76.0924 23.8583 76.0962 23.8665C76.1017 23.8781 76.1225 23.9169 76.2086 24.0012C76.396 24.1847 76.7568 24.4576 77.5014 25.0042C77.9352 25.3227 78.353 25.6174 78.6753 25.8375C78.8367 25.9478 78.9723 26.038 79.073 26.1028C79.1278 26.138 79.1638 26.1601 79.1848 26.1728C79.2528 26.1763 79.3668 26.1422 79.4734 26.0104C79.6024 25.8509 79.5582 25.7616 79.5531 25.7543L79.553 25.7543L79.5489 25.7483C79.5493 25.7489 79.5488 25.7483 79.547 25.7463C79.538 25.7365 79.4991 25.6937 79.4068 25.6118C79.3085 25.5247 79.1771 25.417 79.0203 25.2947C78.7074 25.0507 78.3097 24.7614 77.9085 24.4836C77.5071 24.2056 77.1085 23.9434 76.7942 23.7525C76.6362 23.6564 76.5062 23.5826 76.4111 23.5344C76.3889 23.5231 76.3703 23.5141 76.3551 23.5071C76.3306 23.5121 76.3022 23.5197 76.2721 23.5297C76.2014 23.5531 76.147 23.5814 76.1212 23.5996ZM76.3029 23.4856C76.303 23.4858 76.3058 23.4868 76.3111 23.4883C76.3054 23.4862 76.3027 23.4854 76.3029 23.4856Z" fill="white" stroke="white"/>
<path d="M81.9943 27.5668C81.9728 27.5696 81.9332 27.5795 81.8559 27.6204C81.8225 27.6405 81.7718 27.6934 81.7393 27.7833C81.7118 27.8594 81.7117 27.9225 81.7192 27.9606C81.7259 27.9693 81.7373 27.9836 81.7554 28.0037C81.7991 28.0522 81.8625 28.1139 81.9451 28.1862C82.1097 28.3303 82.3261 28.4951 82.555 28.6517C82.7839 28.8083 83.0146 28.9494 83.2057 29.049C83.3017 29.099 83.3801 29.1345 83.4384 29.1563C83.4605 29.1646 83.4758 29.1693 83.4851 29.172C83.5284 29.165 83.6136 29.1332 83.7031 29.0509C83.7493 29.0084 83.7823 28.9648 83.8017 28.9288C83.8161 28.9019 83.819 28.8871 83.8195 28.8846C83.8193 28.8756 83.8183 28.8711 83.8143 28.8622C83.8078 28.8475 83.7886 28.8123 83.7338 28.7508C83.6164 28.6194 83.4014 28.4383 83.0071 28.1459C82.5149 27.7875 82.2653 27.6376 82.1052 27.5843C82.0413 27.5631 82.0112 27.5646 81.9943 27.5668Z" fill="white" stroke="white"/>
<path d="M65.6243 32.4031L65.6197 32.4031C64.4361 32.4031 63.4773 31.662 63.2075 30.6213C62.9471 29.6056 63.5593 28.4087 64.6922 27.9313C64.9633 27.8225 65.3745 27.7748 65.8245 27.815C66.2734 27.8551 66.6983 27.9772 66.9923 28.1501L66.9974 28.1532L66.9975 28.1531C68.0594 28.7608 68.4536 29.9782 67.9863 30.9887L65.6243 32.4031ZM65.6243 32.4031C66.7506 32.4134 67.5665 31.8943 67.9863 30.9888L65.6243 32.4031ZM67.4155 30.1264H67.4155L67.4155 30.132C67.4065 30.9354 66.8865 31.5076 66.2519 31.7158C65.622 31.9224 64.8616 31.7794 64.3333 31.1877C63.9413 30.755 63.7928 30.2093 63.9295 29.6919C64.0648 29.1796 64.4589 28.7709 65.0001 28.5547C65.3311 28.4189 65.674 28.366 66.0223 28.4437C66.3674 28.5207 66.6634 28.7137 66.9241 28.9725C67.0809 29.127 67.2121 29.2955 67.2992 29.4998C67.387 29.7057 67.4155 29.9139 67.4155 30.1264Z" fill="white" stroke="white"/>
<path d="M85.8392 34.018L85.8392 34.018L85.8378 34.0191C85.7284 34.1006 85.7094 34.1744 85.7087 34.2182C85.708 34.2672 85.7301 34.3668 85.863 34.4878L85.863 34.4877L85.8685 34.4928C86.0185 34.6336 86.0806 34.6362 86.0885 34.6365L86.0886 34.6365C86.1029 34.6371 86.1775 34.6348 86.363 34.5007C86.4671 34.4245 86.5 34.3341 86.5 34.2616C86.5 34.1891 86.4669 34.0984 86.3623 34.022L86.3623 34.0221L86.3569 34.018C86.2922 33.9695 86.2166 33.9257 86.1498 33.8959C86.1294 33.8868 86.112 33.88 86.098 33.875C86.0841 33.88 86.0667 33.8868 86.0463 33.8959C85.9795 33.9257 85.9039 33.9695 85.8392 34.018Z" fill="white" stroke="white"/>
<path d="M76.3114 38.0698L76.3115 38.0699L76.306 38.0739C76.2014 38.1502 76.1683 38.2409 76.1683 38.3135C76.1683 38.386 76.2014 38.4767 76.306 38.5531L76.3061 38.553L76.3114 38.5571C76.3762 38.6056 76.4518 38.6494 76.5186 38.6792C76.5487 38.6927 76.5723 38.7012 76.588 38.7059C76.6384 38.6989 76.7287 38.6631 76.8218 38.5692C76.9271 38.463 76.9595 38.3591 76.9595 38.3135C76.9595 38.2678 76.9271 38.1639 76.8218 38.0577C76.7287 37.9638 76.6384 37.9281 76.588 37.921C76.5723 37.9258 76.5487 37.9342 76.5186 37.9477C76.4518 37.9775 76.3762 38.0213 76.3114 38.0698ZM76.6007 38.7093C76.6017 38.7095 76.6022 38.7096 76.6022 38.7096C76.6022 38.7096 76.6017 38.7095 76.6007 38.7093Z" fill="white" stroke="white"/>
</svg>
